# xmcd
#
# Track frame offsets: 
#        150
#        28587
#        38440
#        57074
#        79278
#        88508
#        108068
#        126770
#        147642
#        157530
#        171256
#        188869
#        211357
#        232794
#
# Disc length: 3942 seconds
#
# Revision: 3
# Processed by: cddbd v1.5.2PL0 Copyright (c) Steve Scherf et al.
# Submitted via: ExactAudioCopy v1.0b3
#
DISCID=a70f640e
DTITLE=Ryan Bingham - Mescalito
DYEAR=2007
DGENRE=Country
TTITLE0=Southside of heaven
TTITLE1=The other side
TTITLE2=Bread and water
TTITLE3=Don't wait for me
TTITLE4=Boracho station
TTITLE5=Sunshine
TTITLE6=Ghost of Travelin' Jones
TTITLE7=Hard times
TTITLE8=Dollar a day
TTITLE9=Take it easy mama
TTITLE10=Long way from Georgia
TTITLE11=Ever wonder why
TTITLE12=Sunrise
TTITLE13=For what it's worth
EXTD=
EXTT0=
EXTT1=
EXTT2=
EXTT3=
EXTT4=
EXTT5=
EXTT6=
EXTT7=
EXTT8=
EXTT9=
EXTT10=
EXTT11=
EXTT12=
EXTT13=
PLAYORDER=
